<svg xmlns="http://www.w3.org/2000/svg"
    width="240.41" height="332.395" viewBox="0 0 240.41 332.395"><defs>
    <style>.a{fill:none;stroke:#bdbdbe;}.b{fill:#4eff9e;}.c{fill:#ff8217;}.d{fill:#2f2e41;}.e{fill:#fff;}.f{fill:#3f3d56;}.g{fill:#6c63ff;}.h{fill:#ccc;}</style>
</defs><g transform="translate(-72 -309)"><line class="a" x1="52" y2="164" transform="translate(115.5 409.5)"/><line class="a" x2="47" y2="167" transform="translate(210.5 406.5)"/><path class="b" d="M95.231,59.442c6.868-19.658,34.669-19.658,41.538,0l85.009,243.3A22,22,0,0,1,201.009,332H30.991a22,22,0,0,1-20.769-29.257Z" transform="translate(72 309)"/><g transform="translate(33 -23)"><ellipse class="c" cx="33" cy="24.5" rx="33" ry="24.5" transform="translate(122 375)"/><ellipse class="c" cx="60" cy="16" rx="60" ry="16" transform="translate(95 400)"/></g><g transform="translate(90 404.988)"><circle class="d" cx="15.388" cy="15.388" r="15.388" transform="translate(84.115 115.642)"/><rect class="d" width="8.376" height="4.675" transform="translate(86.162 144.893) rotate(-26.601)"/><ellipse class="d" cx="1.461" cy="3.896" rx="1.461" ry="3.896" transform="translate(81.933 145.577) rotate(-56.601)"/><rect class="d" width="4.675" height="8.376" transform="translate(103.261 145.319) rotate(-63.399)"/><ellipse class="d" cx="3.896" cy="1.461" rx="3.896" ry="1.461" transform="translate(108.959 147.428) rotate(-33.399)"/><circle class="e" cx="5.259" cy="5.259" r="5.259" transform="translate(93.166 122.007)"/><ellipse class="f" cx="1.746" cy="1.758" rx="1.746" ry="1.758" transform="translate(95.985 125.006) rotate(-45)"/><path class="g" d="M594.441,467.137c.231-5.7-4.679-10.522-10.967-10.778s-11.573,4.156-11.8,9.853,4.14,6.991,10.428,7.247S594.209,472.834,594.441,467.137Z" transform="translate(-482.799 -352.847)"/><ellipse class="d" cx="2.415" cy="7.694" rx="2.415" ry="7.694" transform="translate(108.656 128.987) rotate(-40.645)"/><ellipse class="d" cx="7.694" cy="2.415" rx="7.694" ry="2.415" transform="translate(76.704 137.514) rotate(-49.355)"/><path class="e" d="M600.225,544.9a3.506,3.506,0,1,1-6.9,1.256v-.007c-.345-1.905,1.128-2.58,3.034-2.925S599.88,543,600.225,544.9Z" transform="translate(-496.496 -407.806)"/><path class="h" d="M528.467,498.883a.732.732,0,0,1-.733-.732V454.93a.733.733,0,0,1,1.465,0v43.221A.733.733,0,0,1,528.467,498.883Z" transform="translate(-454.962 -351.484)"/><path class="h" d="M498.467,625.162a.733.733,0,0,1-.733-.733v-31.5a.733.733,0,0,1,1.465,0v31.5a.733.733,0,0,1-.732.733Z" transform="translate(-435.95 -438.937)"/><path class="h" d="M575.467,533.883a.732.732,0,0,1-.732-.732V489.93a.733.733,0,1,1,1.465,0v43.221a.733.733,0,0,1-.733.733Z" transform="translate(-484.746 -373.664)"/><path class="h" d="M546.467,663.244a.733.733,0,0,1-.733-.733V644.93a.733.733,0,1,1,1.465,0v17.581a.733.733,0,0,1-.733.733Z" transform="translate(-466.369 -471.89)"/><path class="h" d="M587.467,417.244a.733.733,0,0,1-.732-.733V398.93a.733.733,0,1,1,1.465,0v17.582a.732.732,0,0,1-.732.733Z" transform="translate(-492.351 -315.995)"/><path class="h" d="M487.467,438.244a.733.733,0,0,1-.733-.733V419.93a.733.733,0,0,1,1.465,0v17.582a.733.733,0,0,1-.732.733Z" transform="translate(-428.979 -329.304)"/><path class="h" d="M661.467,443.244a.733.733,0,0,1-.733-.733V424.93a.733.733,0,0,1,1.465,0v17.582a.733.733,0,0,1-.732.733Z" transform="translate(-539.246 -332.472)"/><path class="h" d="M657.467,586.907a.733.733,0,0,1-.733-.732V564.93a.733.733,0,1,1,1.465,0v21.244a.732.732,0,0,1-.732.733Z" transform="translate(-536.711 -421.193)"/><path class="h" d="M617.467,620.162a.733.733,0,0,1-.733-.733v-31.5a.733.733,0,1,1,1.465,0v31.5a.733.733,0,0,1-.732.733Z" transform="translate(-511.363 -435.768)"/><path class="h" d="M625.467,452.883a.733.733,0,0,1-.733-.732V408.93a.733.733,0,1,1,1.465,0v43.221A.732.732,0,0,1,625.467,452.883Z" transform="translate(-516.432 -322.333)"/><ellipse class="d" cx="2.476" cy="7.887" rx="2.476" ry="7.887" transform="translate(186.82 212.02) rotate(-39.938)"/><circle class="d" cx="15.775" cy="15.775" r="15.775" transform="matrix(0.316, -0.949, 0.949, 0.316, 157.049, 223.715)"/><rect class="d" width="4.792" height="8.586" transform="translate(178.887 226.117)"/><rect class="d" width="4.792" height="8.586" transform="translate(169.303 226.117)"/><ellipse class="d" cx="3.994" cy="1.498" rx="3.994" ry="1.498" transform="translate(175.692 233.305)"/><ellipse class="d" cx="3.994" cy="1.498" rx="3.994" ry="1.498" transform="translate(166.108 233.106)"/><path class="h" d="M798.388,689.609c1.409-5.673,7.626-9.011,13.888-7.456s10.2,7.414,8.787,13.086-6.082,5.691-12.343,4.136S796.979,695.281,798.388,689.609Z" transform="translate(-626.338 -495.701)"/><ellipse class="d" cx="2.476" cy="7.887" rx="2.476" ry="7.887" transform="translate(151.048 205.274) rotate(-64.626)"/><circle class="e" cx="5.259" cy="5.259" r="5.259" transform="translate(169.385 205.149)"/><circle class="f" cx="1.753" cy="1.753" r="1.753" transform="translate(170.73 206.77)"/><circle class="e" cx="2.198" cy="2.198" r="2.198" transform="translate(172.401 219.191)"/><path class="f" d="M785.075,817.93H698.632a.366.366,0,1,1,0-.733h86.443a.366.366,0,1,1,0,.733Z" transform="translate(-563.031 -581.523)"/></g></g></svg>